<svg xmlns="http://www.w3.org/2000/svg" viewBox="0 0 32 32" fill="none">
  <!-- Ghost body -->
  <path d="M16 2C10.477 2 6 6.477 6 12v14c0 1.1.9 2 2 2 1.1 0 2-.9 2-2v-2c0-1.1.9-2 2-2s2 .9 2 2v2c0 1.1.9 2 2 2s2-.9 2-2v-2c0-1.1.9-2 2-2s2 .9 2 2v2c0 1.1.9 2 2 2 1.1 0 2-.9 2-2V12c0-5.523-4.477-10-10-10z" fill="#a855f7"/>
  <!-- Left eye -->
  <circle cx="12" cy="13" r="2.5" fill="#1f2937"/>
  <!-- Right eye -->
  <circle cx="20" cy="13" r="2.5" fill="#1f2937"/>
  <!-- Blush left -->
  <ellipse cx="10" cy="17" rx="2" ry="1" fill="#f9a8d4" opacity="0.6"/>
  <!-- Blush right -->
  <ellipse cx="22" cy="17" rx="2" ry="1" fill="#f9a8d4" opacity="0.6"/>
  <!-- Smile -->
  <path d="M13 18c0 1.657 1.343 3 3 3s3-1.343 3-3" stroke="#1f2937" stroke-width="1.5" stroke-linecap="round" fill="none"/>
</svg>
